<svg fill="rgb(180, 120, 75)" xmlns="http://www.w3.org/2000/svg" viewBox="0 0 109.26 85.42">
  <path class="cls-1" d="M196.00785,140.6799,184.89775,175.61c-11.3598-4.02-26.6799-6.4801-43.52-6.4801-16.8398,0-32.1499,2.4601-43.5198,6.4801l-11.1101-34.9301s32.45,40.2201,20.8001-18.31c0,0,28.2099,59.9601,33.8298-23.0799,5.6301,83.04,33.8301,23.0799,33.8301,23.0799C163.558,180.9,196.00785,140.6799,196.00785,140.6799Z" transform="translate(-86.74785 -99.29)"/>
  <path class="cls-1" d="M184.11775,178.7599l-1.48,5.9501c-11.0898-3.57-25.5-5.73-41.26-5.73-15.55,0-29.8,2.1-40.8398,5.6l-1.75-5.87c11.27-3.8301,26.1999-6.16,42.5898-6.16C157.838,172.55,172.838,174.9,184.11775,178.7599Z" transform="translate(-86.74785 -99.29)"/>
</svg>
