<svg fill="rgb(180, 120, 75)" xmlns="http://www.w3.org/2000/svg" viewBox="0 0 59.25012 71.85638">
  <title>laurier</title>
  <path class="cls-1" d="M133.89,159.20243c-.1761-.2636-.3318-.4761-.4415-.6221l-.1298-.1693c-.0274-.0406-.0422-.0614-.0422-.0614s-.0532.0902-.1278.2473-.1747.3828-.2785.6644a8.025,8.025,0,0,0-.4916,2.2105,4.6642,4.6642,0,0,0,.0941,1.3098,4.724,4.724,0,0,0,.4619,1.2908c.0552.1037.1158.2047.1793.3053a3.4163,3.4163,0,0,0,.2248.2795,4.15422,4.15422,0,0,0,.5406.5128,4.68686,4.68686,0,0,0,1.4525.7736,2.31417,2.31417,0,0,0,.7608-2.2368,4.98433,4.98433,0,0,0-.3711-1.2384c-.0441-.1034-.0923-.2043-.1413-.3068-.044-.1047-.0885-.2099-.1349-.3136-.0954-.2071-.196-.4104-.3044-.6092-.2122-.3963-.448-.7669-.6732-1.105C134.26712,159.77973,134.06792,159.46483,133.89,159.20243Z" transform="translate(-111.75279 -106.07181)"/>
  <path class="cls-1" d="M130.70652,157.51243l-.0722-.3069a10.6363,10.6363,0,0,0-.3499-1.1466c-.062-.1746-.1334-.3388-.1894-.4982-.05-.1625-.1024-.314-.1506-.452-.1964-.552-.3633-.8962-.3633-.8962a8.496,8.496,0,0,0-.6083.8071,9.03327,9.03327,0,0,0-.5369.9016,5.91244,5.91244,0,0,0-.4666,1.1278,5.67441,5.67441,0,0,0-.2173,1.2565,4.45948,4.45948,0,0,0,.0092.6524,2.83941,2.83941,0,0,0,.0436.3252c.0241.1042.0542.209.088.3109a3.58476,3.58476,0,0,0,.6514,1.1764,2.95848,2.95848,0,0,0,.5291.5064,4.49886,4.49886,0,0,0,.7071.4058,2.39352,2.39352,0,0,0,1.1828-2.0141,4.86643,4.86643,0,0,0-.0454-1.2361c-.0334-.2089-.0765-.4147-.1279-.6175C130.764,157.71383,130.73622,157.61233,130.70652,157.51243Z" transform="translate(-111.75279 -106.07181)"/>
  <path class="cls-1" d="M124.70662,156.50693a3.76449,3.76449,0,0,0,.5648.4925,2.65413,2.65413,0,0,0,1.6197-1.737c.0551-.181.1136-.3767.1599-.5744a5.6258,5.6258,0,0,0,.0987-.6015,7.83958,7.83958,0,0,0,.0278-1.2036,9.80315,9.80315,0,0,0-.0436-1.1468c-.0324-.3553-.0895-.6737-.1033-.9591a8.46759,8.46759,0,0,0-.127-.9182,9.42932,9.42932,0,0,0-.7727.6852,10.33993,10.33993,0,0,0-.7311.7835c-.1252.151-.2605.3142-.374.4805-.1154.1672-.2279.3415-.3317.5225a6.053,6.053,0,0,0-.5236,1.1648,4.83968,4.83968,0,0,0-.1561.6228,3.51169,3.51169,0,0,0-.0181.6195,3.12265,3.12265,0,0,0,.3169,1.2171A2.04,2.04,0,0,0,124.70662,156.50693Z" transform="translate(-111.75279 -106.07181)"/>
  <path class="cls-1" d="M121.36242,151.322a3.31433,3.31433,0,0,0,.4137.5523,2.947,2.947,0,0,0,1.9687-1.4091c.0514-.0829.0986-.1691.1454-.2548.0487-.0889.0959-.1788.1418-.2706a5.81835,5.81835,0,0,0,.2363-.5638,7.41266,7.41266,0,0,0,.3091-1.1555,11.326,11.326,0,0,0,.2131-1.1194c.025-.1764.0431-.3443.0588-.5027.0126-.1575.0232-.3062.0449-.4476a8.99959,8.99959,0,0,0,.0755-.9224s-.3674.203-.8867.5671c-.26.1825-.5578.4045-.8659.6639a8.16934,8.16934,0,0,0-.8854.8683,6.93352,6.93352,0,0,0-.7655,1.0461,3.97169,3.97169,0,0,0-.2859.5737,3.931,3.931,0,0,0-.1653.5874,2.925,2.925,0,0,0,.0088,1.2032A1.9292,1.9292,0,0,0,121.36242,151.322Z" transform="translate(-111.75279 -106.07181)"/>
  <path class="cls-1" d="M122.13022,144.96573a6.58592,6.58592,0,0,0,.7218-.9878,7.9866,7.9866,0,0,0,.53-1.0905,13.26791,13.26791,0,0,0,.6782-2.003c.1567-.5449.2326-.9053.2326-.9053s-.3896.162-.9516.4632c-.2771.1506-.613.3383-.94.5546a10.68763,10.68763,0,0,0-1.004.7479,5.40883,5.40883,0,0,0-1.5883,1.983,2.95978,2.95978,0,0,0-.2414,1.1564,2.39041,2.39041,0,0,0,.3804,1.1708A3.14164,3.14164,0,0,0,122.13022,144.96573Z" transform="translate(-111.75279 -106.07181)"/>
  <path class="cls-1" d="M120.89222,139.93963a4.95159,4.95159,0,0,0,.4354-.4192c.1427-.1482.2827-.3077.4114-.4699a8.31235,8.31235,0,0,0,.6895-1.0214c.1006-.1743.1918-.3448.2808-.5186q.1395-.2646.2594-.5203c.1584-.3354.2896-.6515.3948-.922.2015-.543.3192-.8968.3192-.8968s-.3981.1343-.9693.3969a13.8903,13.8903,0,0,0-2.0367,1.1494,8.73535,8.73535,0,0,0-1.0254.8262,5.06107,5.06107,0,0,0-.7871.9637,2.90894,2.90894,0,0,0-.4184,1.0869,2.37336,2.37336,0,0,0,.1622,1.1662A3.23474,3.23474,0,0,0,120.89222,139.93963Z" transform="translate(-111.75279 -106.07181)"/>
  <path class="cls-1" d="M118.20682,135.12493a3.20456,3.20456,0,0,0,2.2943-.6408,5.71462,5.71462,0,0,0,.9025-.8167,8.46727,8.46727,0,0,0,.7747-.9448c.2344-.321.4234-.6528.619-.947.1908-.2973.3517-.5745.4809-.814.1292-.2381.2271-.4378.2951-.5773.0691-.1372.1084-.2159.1084-.2159l-.2714.0694c-.1752.0441-.4138.1181-.7015.2155a13.09937,13.09937,0,0,0-2.0858.9179c-.1877.1037-.3735.2154-.5556.334-.1784.12-.3465.247-.5106.3813a5.23626,5.23626,0,0,0-.8631.878A2.42074,2.42074,0,0,0,118.20682,135.12493Z" transform="translate(-111.75279 -106.07181)"/>
  <path class="cls-1" d="M121.13072,128.52513a8.672,8.672,0,0,0,1.8292-1.4748c.1311-.1353.2511-.2739.3721-.4092.1278-.1297.2474-.2589.3608-.3849.2247-.2507.4161-.4869.5736-.6908.1511-.2039.2877-.3669.3832-.4819.0908-.1159.1427-.1816.1427-.1816s-.3901.0333-.985.1404a11.34059,11.34059,0,0,0-2.1308.6133,7.91135,7.91135,0,0,0-1.1397.5532,5.14674,5.14674,0,0,0-.9429.7483,3.62132,3.62132,0,0,0-.3674.4403,1.84873,1.84873,0,0,0-.2566.4822,2.16376,2.16376,0,0,0-.1132,1.0814A3.28085,3.28085,0,0,0,121.13072,128.52513Z" transform="translate(-111.75279 -106.07181)"/>
  <path class="cls-1" d="M126.51452,120.41793c-.2905.006-.6362.0251-1.011.0612a9.85914,9.85914,0,0,0-1.1625.189,8.686,8.686,0,0,0-1.2013.3497c-.1969.0747-.3896.1548-.5759.2457a3.93991,3.93991,0,0,0-.505.3068,2.3573,2.3573,0,0,0-1.1551,1.7697,3.27879,3.27879,0,0,0,2.2337-.0839,8.15356,8.15356,0,0,0,2.0659-1.0897,15.78492,15.78492,0,0,0,1.6002-1.1875c.4227-.3255.6714-.5536.6714-.5536S127.09922,120.40123,126.51452,120.41793Z" transform="translate(-111.75279 -106.07181)"/>
  <path class="cls-1" d="M130.24692,116.09843a12.30956,12.30956,0,0,0-2.1395-.0106,7.58334,7.58334,0,0,0-2.3894.5577,2.82979,2.82979,0,0,0-1.5284,1.504,2.52727,2.52727,0,0,0,1.0211.3169,4.12648,4.12648,0,0,0,1.1286-.0524,6.78194,6.78194,0,0,0,1.1365-.3076c.373-.1343.7279-.2937,1.0981-.4535a17.724,17.724,0,0,0,1.819-.9693c.4836-.2742.7792-.4749.7792-.4749S130.81262,116.14753,130.24692,116.09843Z" transform="translate(-111.75279 -106.07181)"/>
  <path class="cls-1" d="M129.69512,112.11063a2.79514,2.79514,0,0,0-1.5132,1.4451c1.1889.7172,2.8925.1831,4.2533-.4929a16.82686,16.82686,0,0,0,1.7948-1.0003c.4573-.291.7353-.5014.7353-.5014a13.99225,13.99225,0,0,0-2.9638-.024A7.1971,7.1971,0,0,0,129.69512,112.11063Z" transform="translate(-111.75279 -106.07181)"/>
  <path class="cls-1" d="M129.23,106.07181s-.26281.28082-.61578.72229a12.15218,12.15218,0,0,0-1.15692,1.69531c-.69348,1.33063-1.02808,2.79608.21258,3.4953-1.25366,1.131-2.3985,2.21228-3.44427,3.30048.01446-.04566.02826-.09119.03949-.13929a5.13855,5.13855,0,0,0,.09448-2.06689,11.56625,11.56625,0,0,0-.38727-1.749c-.139-.4527-.26233-.74036-.26233-.74036s-.2478.31738-.575.80981a11.53571,11.53571,0,0,0-.97327,1.93018,4.865,4.865,0,0,0-.29888,1.11572,3.57933,3.57933,0,0,0-.02045,1.05585,1.85464,1.85464,0,0,0,.34845.86694,1.75685,1.75685,0,0,0,.60278.492,28.60646,28.60646,0,0,0-2.44171,3.27746c-.0047-.0653-.01019-.13018-.01477-.19458a4.70465,4.70465,0,0,0-.07324-.54058,7.29424,7.29424,0,0,0-.29279-1.06482c-.11957-.34278-.26831-.67969-.39392-.9748-.12738-.298-.25757-.56671-.37427-.79461-.233-.45539-.41473-.74079-.41473-.74079s-.1983.37207-.4411.94092a11.04411,11.04411,0,0,0-.5893,2.17389,4.953,4.953,0,0,0,.20624,2.2995,2.14955,2.14955,0,0,0,1.111,1.1499,28.9312,28.9312,0,0,0-1.38617,3.25159c-.05419-.1344-.11492-.265-.18121-.397a8.93886,8.93886,0,0,0-.5722-1.02588,16.91623,16.91623,0,0,0-1.26532-1.67762c-.353-.42669-.61017-.689-.61017-.689s-.02411.10388-.06861.28491a5.232,5.232,0,0,0-.12548.75379c-.0329.31189-.06122.6784-.07282,1.07037-.00592.19549-.00641.397-.00268.60089.012.20575.03839.41333.06756.6203a4.88952,4.88952,0,0,0,.8219,2.26984,2.57356,2.57356,0,0,0,1.17182.91461,27.85025,27.85025,0,0,0-.58191,3.06256c-.0315-.0473-.064-.09326-.09778-.13861-.1247-.16907-.26038-.3327-.3971-.49194-.13208-.16132-.27142-.31665-.41333-.46894a15.87,15.87,0,0,0-1.6582-1.50311c-.23669-.18671-.44055-.33575-.57575-.44061-.14-.10126-.21875-.15876-.21875-.15876s-.00695.10791-.00238.29c.01069.18152.02692.442.05933.75373.03235.31189.0788.67517.1488,1.06a8.05011,8.05011,0,0,0,.3238,1.19263,7.84711,7.84711,0,0,0,.50689,1.17267,4.81688,4.81688,0,0,0,.7417.99335,2.975,2.975,0,0,0,1.33069.80627c-.03662,1.07153-.019,2.147.04309,3.21961q-.16405-.213-.3457-.41858a9.65077,9.65077,0,0,0-.93817-.91864,15.54957,15.54957,0,0,0-1.90192-1.37506c-.53509-.336-.89508-.532-.89508-.532a7.85274,7.85274,0,0,0,.19177,1.02313c.07459.30433.17.65741.29053,1.03412.0603.189.12646.38318.201.58.07782.20019.16681.40631.26044.60974a8.63654,8.63654,0,0,0,.65741,1.181,5.76549,5.76549,0,0,0,.397.52631,4.97889,4.97889,0,0,0,.47082.461,3.0947,3.0947,0,0,0,1.894.79383c.1687,1.27118.391,2.537.658,3.79248-.0232-.03461-.04554-.06842-.07-.10089a9.80713,9.80713,0,0,0-2.04834-1.876c-.38355-.271-.77557-.51837-1.14575-.738-.372-.22-.7-.41278-.99652-.56848-.5871-.31793-.98743-.4967-.98743-.4967a11.13267,11.13267,0,0,0,.31592,1.08191,13.84105,13.84105,0,0,0,1.11108,2.31378,9.8648,9.8648,0,0,0,.88635,1.16662,5.19282,5.19282,0,0,0,1.06055.93805,3.28522,3.28522,0,0,0,2.41382.56672c.03979.15991.0816.31793.12421.47552a29.39677,29.39677,0,0,0,1.09057,3.32367c-.07965-.08289-.16357-.1648-.24927-.24561-.17688-.16217-.36883-.31628-.56842-.46557-.19976-.15058-.39056-.297-.60089-.436a13.1904,13.1904,0,0,0-1.31262-.76941c-.4444-.23553-.91089-.44451-1.315-.63354-.40845-.18665-.7945-.3479-1.1239-.4809-.6626-.26367-1.10828-.40948-1.10828-.40948s.18951.45019.532,1.10028a11.71652,11.71652,0,0,0,.68885,1.09015,14.31912,14.31912,0,0,0,.91687,1.19409,11.27857,11.27857,0,0,0,1.17,1.09839,7.625,7.625,0,0,0,.62683.45868c.10712.0686.2146.13482.32159.197q.173.09165.34229.16907a3.49434,3.49434,0,0,0,2.615.2362,26.97114,26.97114,0,0,0,2.12622,3.5719c-.12927-.09649-.26331-.19-.40356-.27667-.22156-.13678-.45594-.26508-.69593-.38641-.22839-.12659-.468-.24317-.71441-.35627a16.24586,16.24586,0,0,0-1.52289-.59265q-.38792-.12853-.76782-.24469c-.24921-.07446-.48786-.14856-.71631-.21728-.46039-.13611-.89087-.25012-1.25867-.3418-.73907-.183-1.22968-.27338-1.22968-.27338s.30249.44056.81165,1.06916a10.27694,10.27694,0,0,0,.96332,1.02862c.3753.36481.79223.741,1.23242,1.09729a12.74186,12.74186,0,0,0,1.471.94373c.2511.13745.505.26166.757.3706a4.78859,4.78859,0,0,0,.76641.27008,3.57723,3.57723,0,0,0,2.75123-.20153c.79406.99011,1.63317,1.98852,2.5213,2.96472-.0362-.01569-.07282-.0315-.109-.04627-.131-.05145-.26318-.09784-.39795-.14514-.13251-.04626-.2594-.09527-.39282-.13928-.26551-.09039-.53888-.16919-.8169-.24377-.55548-.145-1.13232-.259-1.7008-.35224-.5791-.0871-1.10449-.17737-1.61188-.24042-.50324-.06469-.97064-.11285-1.36963-.15-.79681-.07153-1.32-.0885-1.32-.0885s.4245.40259,1.11023.9599c.17041.139.3581.28827.55817.44311.20392.15186.43933.301.677.45527.47864.30761,1.00171.61938,1.54334.90869.13708.07043.26995.14264.41186.2088.14362.064.289.12512.43512.18439.29089.11914.58508.2293.87561.325a8.83752,8.83752,0,0,0,1.70026.40527,3.83249,3.83249,0,0,0,2.40845-.41687c.72827.70276,1.48626,1.37915,2.27618,2.01776-.2395-.035-.4823-.06647-.72833-.09057-.59809-.06049-1.22644-.069-1.79956-.09449-1.16382-.036-2.279.01435-3.10511.0719-.41381.02777-.75372.05927-.98822.0824-.23486.02319-.36419.03577-.36419.03577l.09131.062c.05981.04132.15478.0946.27288.16357.23633.14.57782.3346.99573.55615.41687.22406.90851.4748,1.44586.72437.55616.23083,1.16254.45691,1.7815.65839.309.0993.62414.19281.934.27624.158.043.31421.081.47033.11859.15839.0315.31928.05976.47577.0857a10.03264,10.03264,0,0,0,1.82038.138,4.04808,4.04808,0,0,0,1.98712-.4975c.29559.17291.595.34009.89892.4989a.25935.25935,0,0,0,.1612.04c3.04525,1.08543,6.39056,2.12765,10.02025,3.04562,2.43026.61463,4.76852,1.118,6.99778,1.53044,4.25313.91667,8.70661,2.03182,13.324,3.38933q3.21892.94638,6.25249,1.95819l-4.50671-3.83337c-4.28339-.65228-8.309-1.357-11.7107-1.99133l.01819-.00257q-1.532-.3054-3.07077-.617-1.26906-.257-2.53225-.51613a61.19915,61.19915,0,0,1-11.345-2.90393c-1.45371-.52527-2.82519-1.08357-4.11392-1.6586a34.71934,34.71934,0,0,1-12.402-12.97284,32.1829,32.1829,0,0,1-3.4591-10.914,39.551,39.551,0,0,1-.5954-9.96856c.9021-9.18055,6.9364-17.18812,14.84332-23.80982a19.639,19.639,0,0,0-3.12933,2.05432l-.00226.00147a2.8129,2.8129,0,0,0,.19177-.367,5.18523,5.18523,0,0,0,.37812-1.94488,8.94442,8.94442,0,0,0-.3368-2.41211" transform="translate(-111.75279 -106.07181)"/>
</svg>
